<svg width="21" height="24" viewBox="0 0 21 24" fill="none" xmlns="http://www.w3.org/2000/svg">
<path d="M10.5 21.1826C11.6363 21.1826 11.3333 23.1522 13.7196 22.9628C16.1059 22.7735 19.5527 17.3948 19.9694 12.6223C20.1967 9.93295 19.2118 6.44821 15.1968 5.88005C11.7121 5.38764 10.5 7.16789 10.5 7.16789C10.5 7.16789 9.28792 5.38764 5.80318 5.88005C1.78815 6.44821 0.803334 9.93295 1.0306 12.6223C1.44725 17.3948 5.31077 22.6598 7.2804 22.9628C9.62881 23.3037 9.36367 21.1826 10.5 21.1826Z" fill="white" stroke="black" stroke-width="1.3" stroke-miterlimit="10" stroke-linecap="round" stroke-linejoin="round"/>
<path d="M10.4998 7.73621C10.424 6.75139 10.3483 3.49392 11.4846 1.14551L10.4998 7.73621Z" fill="white"/>
<path d="M10.4998 7.73621C10.424 6.75139 10.3483 3.49392 11.4846 1.14551" stroke="black" stroke-width="1.3" stroke-miterlimit="10" stroke-linecap="round" stroke-linejoin="round"/>
<path d="M5.84106 1.78875C5.84106 1.78875 10.0834 0.463037 10.6136 4.17504C10.6136 4.21292 6.2956 5.46288 5.84106 1.78875Z" fill="white" stroke="black" stroke-width="1.3" stroke-miterlimit="10" stroke-linecap="round" stroke-linejoin="round"/>
<path d="M9.25 7.4707C9.25 7.4707 10.6136 8.11462 11.6742 7.4707H9.25Z" fill="white"/>
<path d="M9.25 7.4707C9.25 7.4707 10.6136 8.11462 11.6742 7.4707" stroke="black" stroke-width="1.3" stroke-miterlimit="10" stroke-linecap="round" stroke-linejoin="round"/>
</svg>
