<svg width="20" height="20" viewBox="0 0 20 20" fill="none" xmlns="http://www.w3.org/2000/svg">
<g clip-path="url(#clip0_5401_7314)">
<path d="M17.0455 13.0391L16.1238 11.5009C15.7938 10.9509 15.6205 10.3216 15.6205 9.68079V7.49166C15.6205 4.39499 13.0988 1.875 9.99963 1.875C6.90046 1.875 4.37879 4.39416 4.37879 7.49166V9.68079C4.37879 10.3216 4.20462 10.9509 3.87545 11.5009L2.95379 13.0391C2.63296 13.5733 2.62546 14.2166 2.93213 14.7583C3.23963 15.3016 3.79545 15.6258 4.41962 15.6258H7.73629C7.72962 15.6958 7.70879 15.7633 7.70879 15.8341C7.70879 17.0983 8.73629 18.1258 10.0005 18.1258C11.2646 18.1258 12.2921 17.0983 12.2921 15.8341C12.2921 15.7633 12.2713 15.6958 12.2646 15.6258H15.5813C16.2055 15.6258 16.7621 15.3016 17.0688 14.7591C17.3746 14.2166 17.3663 13.5733 17.0455 13.0391ZM11.0405 15.8341C11.0405 16.4083 10.573 16.8758 9.99879 16.8758C9.42462 16.8758 8.95712 16.4083 8.95712 15.8341C8.95712 15.7633 8.97046 15.6941 8.98463 15.6258H11.013C11.0271 15.6941 11.0405 15.7633 11.0405 15.8341ZM15.9796 14.1425C15.9396 14.2125 15.8221 14.375 15.5796 14.375H4.41795C4.17628 14.375 4.05795 14.2125 4.01795 14.1425C3.97879 14.0725 3.89962 13.8883 4.02379 13.6816L4.94546 12.1434C5.39213 11.3992 5.62712 10.5475 5.62712 9.68079V7.49166C5.62712 5.08416 7.58795 3.125 9.99795 3.125C12.4079 3.125 14.3688 5.08416 14.3688 7.49166V9.68079C14.3688 10.5475 14.6046 11.3992 15.0505 12.1434L15.9721 13.6816C16.0971 13.8883 16.0188 14.0725 15.9796 14.1425Z" fill="#1D1D1D"/>
</g>
<defs>
<clipPath id="clip0_5401_7314">
<rect width="20" height="20" fill="white"/>
</clipPath>
</defs>
</svg>
