<svg width="27" height="19" viewBox="0 0 27 19" fill="none" xmlns="http://www.w3.org/2000/svg">
<path fill-rule="evenodd" clip-rule="evenodd" d="M0.942017 4.47581C0.942017 2.00389 2.9401 0 5.40485 0H22.0661C24.5308 0 26.5289 2.00389 26.5289 4.47581V14.0242C26.5289 16.4961 24.5308 18.5 22.0661 18.5H5.40485C2.94009 18.5 0.942017 16.4961 0.942017 14.0242V4.47581ZM5.40485 1.79032C3.926 1.79032 2.72715 2.99266 2.72715 4.47581V14.0242C2.72715 15.5073 3.926 16.7097 5.40485 16.7097H22.0661C23.5449 16.7097 24.7438 15.5073 24.7438 14.0242V4.47581C24.7438 2.99265 23.5449 1.79032 22.0661 1.79032H5.40485Z" fill="white"/>
<path fill-rule="evenodd" clip-rule="evenodd" d="M0.942017 6.86293C0.942017 6.36855 1.34163 5.96777 1.83458 5.96777H25.6364C26.1293 5.96777 26.5289 6.36855 26.5289 6.86293C26.5289 7.35732 26.1293 7.7581 25.6364 7.7581H1.83458C1.34163 7.7581 0.942017 7.35732 0.942017 6.86293Z" fill="white"/>
<path fill-rule="evenodd" clip-rule="evenodd" d="M4.51245 12.8307C4.51245 12.3363 4.91207 11.9355 5.40502 11.9355L12.5456 11.9355C13.0385 11.9355 13.4381 12.3363 13.4381 12.8307C13.4381 13.3251 13.0385 13.7259 12.5456 13.7259L5.40502 13.7259C4.91207 13.7259 4.51245 13.3251 4.51245 12.8307Z" fill="white"/>
</svg>
