<svg width="24" height="20" viewBox="0 0 24 20" fill="none" xmlns="http://www.w3.org/2000/svg">
<path d="M20.2887 9.58335C20.2919 10.6832 20.0072 11.7682 19.4578 12.75C18.8064 13.9265 17.805 14.916 16.5658 15.6077C15.3265 16.2995 13.8984 16.6662 12.4413 16.6667C11.2228 16.6695 10.0207 16.4126 8.93304 15.9167L3.67065 17.5L5.42478 12.75C4.8754 11.7682 4.5907 10.6832 4.59388 9.58335C4.59444 8.26815 5.00066 6.97906 5.76704 5.86048C6.53341 4.74189 7.62968 3.83799 8.93304 3.25002C10.0207 2.75413 11.2228 2.49716 12.4413 2.50002H12.9029C14.8272 2.59585 16.6448 3.32899 18.0075 4.55907C19.3703 5.78915 20.1825 7.42973 20.2887 9.16668V9.58335Z" fill="white" stroke="white" stroke-width="1.5" stroke-linecap="round" stroke-linejoin="round"/>
</svg>
