<svg width="30" height="30" viewBox="0 0 30 30" fill="none" xmlns="http://www.w3.org/2000/svg">
<path d="M14.9999 9.37493C13.8874 9.37493 12.7999 9.70483 11.8748 10.3229C10.9498 10.941 10.2289 11.8195 9.80311 12.8473C9.37737 13.8752 9.26597 15.0062 9.48302 16.0973C9.70006 17.1885 10.2358 18.1907 11.0225 18.9774C11.8091 19.7641 12.8114 20.2998 13.9025 20.5168C14.9937 20.7339 16.1247 20.6225 17.1525 20.1968C18.1804 19.771 19.0589 19.05 19.6769 18.125C20.295 17.2 20.6249 16.1125 20.6249 14.9999C20.6234 13.5086 20.0303 12.0787 18.9757 11.0242C17.9211 9.96961 16.4913 9.37648 14.9999 9.37493ZM14.9999 18.7499C14.2583 18.7499 13.5332 18.53 12.9165 18.1179C12.2999 17.7059 11.8192 17.1202 11.5354 16.435C11.2516 15.7498 11.1773 14.9958 11.322 14.2683C11.4667 13.5409 11.8238 12.8727 12.3483 12.3483C12.8727 11.8238 13.5409 11.4667 14.2683 11.322C14.9958 11.1773 15.7498 11.2516 16.435 11.5354C17.1202 11.8192 17.7059 12.2999 18.1179 12.9165C18.53 13.5332 18.7499 14.2583 18.7499 14.9999C18.7499 15.9945 18.3548 16.9483 17.6516 17.6516C16.9483 18.3548 15.9945 18.7499 14.9999 18.7499ZM25.3124 15.2531C25.3171 15.0843 25.3171 14.9156 25.3124 14.7468L27.0609 12.5624C27.1525 12.4477 27.216 12.3131 27.2461 12.1694C27.2763 12.0257 27.2722 11.8769 27.2343 11.7351C26.9477 10.6577 26.5189 9.62319 25.9593 8.65892C25.886 8.53273 25.7843 8.42538 25.6623 8.34543C25.5402 8.26547 25.4011 8.21512 25.2562 8.19837L22.4765 7.88899C22.3609 7.76712 22.2437 7.64993 22.1249 7.53743L21.7968 4.75071C21.7799 4.60565 21.7294 4.46653 21.6492 4.34446C21.5691 4.22238 21.4615 4.12073 21.3351 4.04759C20.3704 3.48901 19.3361 3.06067 18.2589 2.77376C18.117 2.73602 17.9682 2.73216 17.8244 2.76249C17.6807 2.79282 17.5462 2.85649 17.4316 2.94837L15.2531 4.68743C15.0843 4.68743 14.9156 4.68743 14.7468 4.68743L12.5624 2.94251C12.4477 2.85083 12.3131 2.78737 12.1694 2.75725C12.0257 2.72712 11.8769 2.73117 11.7351 2.76907C10.6578 3.05621 9.62343 3.48495 8.65892 4.04407C8.53273 4.11734 8.42538 4.21906 8.34543 4.34113C8.26547 4.4632 8.21512 4.60224 8.19837 4.7472L7.88899 7.53157C7.76712 7.64798 7.64993 7.76517 7.53743 7.88313L4.75071 8.20306C4.60565 8.21993 4.46653 8.27047 4.34446 8.35063C4.22238 8.43079 4.12073 8.53837 4.04759 8.66478C3.48901 9.62942 3.06067 10.6638 2.77376 11.7409C2.73602 11.8829 2.73216 12.0317 2.76249 12.1754C2.79282 12.3191 2.85649 12.4537 2.94837 12.5683L4.68743 14.7468C4.68743 14.9156 4.68743 15.0843 4.68743 15.2531L2.94251 17.4374C2.85083 17.5521 2.78737 17.6867 2.75725 17.8304C2.72712 17.9742 2.73117 18.1229 2.76907 18.2648C3.0557 19.3422 3.48447 20.3767 4.04407 21.3409C4.11734 21.4671 4.21906 21.5745 4.34113 21.6544C4.4632 21.7344 4.60224 21.7847 4.7472 21.8015L7.52689 22.1109C7.64329 22.2327 7.76048 22.3499 7.87845 22.4624L8.20306 25.2492C8.21993 25.3942 8.27047 25.5333 8.35063 25.6554C8.43079 25.7775 8.53837 25.8791 8.66478 25.9523C9.62942 26.5109 10.6638 26.9392 11.7409 27.2261C11.8829 27.2638 12.0317 27.2677 12.1754 27.2374C12.3191 27.207 12.4537 27.1434 12.5683 27.0515L14.7468 25.3124C14.9156 25.3171 15.0843 25.3171 15.2531 25.3124L17.4374 27.0609C17.5521 27.1525 17.6867 27.216 17.8304 27.2461C17.9742 27.2763 18.1229 27.2722 18.2648 27.2343C19.3422 26.9477 20.3767 26.5189 21.3409 25.9593C21.4671 25.886 21.5745 25.7843 21.6544 25.6623C21.7344 25.5402 21.7847 25.4011 21.8015 25.2562L22.1109 22.4765C22.2327 22.3609 22.3499 22.2437 22.4624 22.1249L25.2492 21.7968C25.3942 21.7799 25.5333 21.7294 25.6554 21.6492C25.7775 21.5691 25.8791 21.4615 25.9523 21.3351C26.5109 20.3704 26.9392 19.3361 27.2261 18.2589C27.2638 18.117 27.2677 17.9682 27.2374 17.8244C27.207 17.6807 27.1434 17.5462 27.0515 17.4316L25.3124 15.2531ZM23.4257 14.4913C23.4456 14.8301 23.4456 15.1698 23.4257 15.5085C23.4118 15.7405 23.4844 15.9693 23.6296 16.1507L25.2925 18.2284C25.1017 18.8349 24.8574 19.4231 24.5624 19.9863L21.914 20.2863C21.6834 20.3119 21.4704 20.4221 21.3163 20.5956C21.0908 20.8493 20.8505 21.0896 20.5968 21.3152C20.4233 21.4692 20.313 21.6822 20.2874 21.9128L19.9933 24.5589C19.4302 24.854 18.8419 25.0983 18.2355 25.289L16.1566 23.6261C15.9902 23.4932 15.7836 23.4209 15.5706 23.421H15.5144C15.1756 23.4409 14.836 23.4409 14.4972 23.421C14.2653 23.4071 14.0364 23.4797 13.855 23.6249L11.7714 25.289C11.165 25.0982 10.5768 24.8539 10.0136 24.5589L9.7136 21.914C9.688 21.6834 9.57777 21.4704 9.40423 21.3163C9.15053 21.0908 8.91027 20.8505 8.6847 20.5968C8.53063 20.4233 8.31768 20.313 8.08704 20.2874L5.44095 19.9921C5.14586 19.429 4.90153 18.8408 4.71087 18.2343L6.37376 16.1554C6.51896 15.974 6.59163 15.7451 6.57767 15.5132C6.55774 15.1744 6.55774 14.8348 6.57767 14.496C6.59163 14.2641 6.51896 14.0352 6.37376 13.8538L4.71087 11.7714C4.90168 11.165 5.146 10.5768 5.44095 10.0136L8.08587 9.7136C8.31651 9.688 8.52946 9.57777 8.68353 9.40423C8.9091 9.15053 9.14936 8.91027 9.40306 8.6847C9.57729 8.53053 9.68797 8.3171 9.7136 8.08587L10.0077 5.44095C10.5708 5.14586 11.1591 4.90153 11.7656 4.71087L13.8445 6.37376C14.0259 6.51896 14.2547 6.59163 14.4867 6.57767C14.8254 6.55774 15.1651 6.55774 15.5038 6.57767C15.7358 6.59163 15.9646 6.51896 16.146 6.37376L18.2284 4.71087C18.8349 4.90168 19.4231 5.146 19.9863 5.44095L20.2863 8.08587C20.3119 8.31651 20.4221 8.52946 20.5956 8.68353C20.8493 8.9091 21.0896 9.14936 21.3152 9.40306C21.4692 9.5766 21.6822 9.68683 21.9128 9.71243L24.5589 10.0066C24.854 10.5697 25.0983 11.1579 25.289 11.7644L23.6261 13.8433C23.4795 14.0262 23.4068 14.2574 23.4222 14.4913H23.4257Z" fill="white"/>
</svg>
