<svg width="22" height="22" viewBox="0 0 22 22" fill="none" xmlns="http://www.w3.org/2000/svg">
<path d="M1.31494 17.3888V13.2326C1.31494 11.4201 2.9374 9.94092 4.95109 9.94092H16.6535C18.6556 9.94092 20.2896 11.4097 20.2896 13.2326V17.3888C20.2896 19.2013 18.6672 20.6805 16.6535 20.6805H4.95109C2.9374 20.6805 1.31494 19.2118 1.31494 17.3888Z" stroke="#C2C3CB" stroke-width="1.5625" stroke-linecap="round" stroke-linejoin="round"/>
<path d="M4.87061 9.95134V6.77425C4.87061 3.81592 7.52867 1.40967 10.7966 1.40967C14.0645 1.40967 16.7226 3.81592 16.7226 6.77425V9.95134H4.87061Z" stroke="#C2C3CB" stroke-width="1.5625" stroke-linecap="round" stroke-linejoin="round"/>
<path d="M10.7964 17.4619V14.7744" stroke="#C2C3CB" stroke-width="1.5625" stroke-linecap="round" stroke-linejoin="round"/>
<path d="M10.7965 15.3158C11.4511 15.3158 11.9817 14.8354 11.9817 14.2428C11.9817 13.6503 11.4511 13.1699 10.7965 13.1699C10.142 13.1699 9.61133 13.6503 9.61133 14.2428C9.61133 14.8354 10.142 15.3158 10.7965 15.3158Z" stroke="#C2C3CB" stroke-width="1.5625" stroke-linecap="round" stroke-linejoin="round"/>
</svg>
