<svg width="32" height="32" viewBox="0 0 32 32" fill="none" xmlns="http://www.w3.org/2000/svg">
<path d="M16 3C13.7556 2.99951 11.5493 3.58011 9.59585 4.68529C7.64239 5.79046 6.00834 7.38256 4.85274 9.30662C3.69715 11.2307 3.05938 13.4212 3.00151 15.6648C2.94365 17.9085 3.46765 20.1289 4.52253 22.11L3.10378 26.3662C2.98626 26.7186 2.96921 27.0968 3.05453 27.4583C3.13985 27.8199 3.32417 28.1505 3.58684 28.4132C3.84951 28.6759 4.18015 28.8602 4.54169 28.9455C4.90323 29.0308 5.28139 29.0138 5.63378 28.8962L9.89003 27.4775C11.6335 28.4048 13.5653 28.9228 15.5388 28.992C17.5123 29.0613 19.4757 28.68 21.2799 27.8772C23.084 27.0743 24.6816 25.871 25.9513 24.3586C27.221 22.8462 28.1294 21.0644 28.6077 19.1484C29.0859 17.2325 29.1214 15.2328 28.7114 13.301C28.3015 11.3693 27.4568 9.55642 26.2416 7.9999C25.0263 6.44337 23.4725 5.18415 21.6979 4.31782C19.9234 3.45149 17.9748 3.00081 16 3ZM20 19H12C11.7348 19 11.4805 18.8946 11.2929 18.7071C11.1054 18.5196 11 18.2652 11 18C11 17.7348 11.1054 17.4804 11.2929 17.2929C11.4805 17.1054 11.7348 17 12 17H20C20.2652 17 20.5196 17.1054 20.7071 17.2929C20.8947 17.4804 21 17.7348 21 18C21 18.2652 20.8947 18.5196 20.7071 18.7071C20.5196 18.8946 20.2652 19 20 19ZM20 15H12C11.7348 15 11.4805 14.8946 11.2929 14.7071C11.1054 14.5196 11 14.2652 11 14C11 13.7348 11.1054 13.4804 11.2929 13.2929C11.4805 13.1054 11.7348 13 12 13H20C20.2652 13 20.5196 13.1054 20.7071 13.2929C20.8947 13.4804 21 13.7348 21 14C21 14.2652 20.8947 14.5196 20.7071 14.7071C20.5196 14.8946 20.2652 15 20 15Z" fill="#FD397F"/>
</svg>
