<svg width="19" height="22" viewBox="0 0 19 22" fill="none" xmlns="http://www.w3.org/2000/svg">
<path d="M5.01173 4.8962C5.01173 2.64353 7.13707 0.817383 9.75882 0.817383C12.3806 0.817383 14.5059 2.64353 14.5059 4.8962V11.0144C14.5059 13.2671 12.3806 15.0932 9.75882 15.0932C7.13707 15.0932 5.01173 13.2671 5.01173 11.0144V4.8962Z" fill="#FD397F"/>
<path d="M18.0662 9.99472V11.0144C18.0662 14.9566 14.3469 18.1524 9.75882 18.1524M1.45142 9.99472V11.0144C1.45142 14.9566 5.17077 18.1524 9.75882 18.1524M9.75882 18.1524V21.2115M9.75882 21.2115H13.3191M9.75882 21.2115H6.1985M9.75882 15.0932C7.13707 15.0932 5.01173 13.2671 5.01173 11.0144V4.8962C5.01173 2.64353 7.13707 0.817383 9.75882 0.817383C12.3806 0.817383 14.5059 2.64353 14.5059 4.8962V11.0144C14.5059 13.2671 12.3806 15.0932 9.75882 15.0932Z" stroke="#FD397F" stroke-width="1.5" stroke-linecap="round" stroke-linejoin="round"/>
</svg>
