<svg width="25" height="8" viewBox="0 0 25 8" fill="none" xmlns="http://www.w3.org/2000/svg">
<path d="M12.8164 5.25C13.5068 5.25 14.0664 4.69036 14.0664 4C14.0664 3.30964 13.5068 2.75 12.8164 2.75C12.1261 2.75 11.5664 3.30964 11.5664 4C11.5664 4.69036 12.1261 5.25 12.8164 5.25Z" stroke="#30242A" stroke-width="3.91667" stroke-linecap="round" stroke-linejoin="round"/>
<path d="M21.5664 5.25C22.2568 5.25 22.8164 4.69036 22.8164 4C22.8164 3.30964 22.2568 2.75 21.5664 2.75C20.8761 2.75 20.3164 3.30964 20.3164 4C20.3164 4.69036 20.8761 5.25 21.5664 5.25Z" stroke="#30242A" stroke-width="3.91667" stroke-linecap="round" stroke-linejoin="round"/>
<path d="M4.06641 5.25C4.75676 5.25 5.31641 4.69036 5.31641 4C5.31641 3.30964 4.75676 2.75 4.06641 2.75C3.37605 2.75 2.81641 3.30964 2.81641 4C2.81641 4.69036 3.37605 5.25 4.06641 5.25Z" stroke="#30242A" stroke-width="3.91667" stroke-linecap="round" stroke-linejoin="round"/>
</svg>
