<svg width="30" height="26" viewBox="0 0 30 26" fill="none" xmlns="http://www.w3.org/2000/svg">
<path d="M9.10134 6.897V7.647C9.33309 7.647 9.55183 7.53986 9.69389 7.35676L9.10134 6.897ZM10.7703 4.74604L10.1777 4.28628L10.1777 4.28628L10.7703 4.74604ZM19.3001 4.74604L19.8927 4.28628V4.28628L19.3001 4.74604ZM20.9691 6.897L20.3765 7.35676C20.5186 7.53986 20.7373 7.647 20.9691 7.647V6.897ZM17.8455 14.5448C17.8455 15.7173 16.6981 16.8539 15.0352 16.8539V18.3539C17.3049 18.3539 19.3455 16.7512 19.3455 14.5448H17.8455ZM15.0352 16.8539C13.3723 16.8539 12.2249 15.7173 12.2249 14.5448H10.7249C10.7249 16.7512 12.7655 18.3539 15.0352 18.3539V16.8539ZM12.2249 14.5448C12.2249 13.3722 13.3723 12.2357 15.0352 12.2357V10.7357C12.7655 10.7357 10.7249 12.3383 10.7249 14.5448H12.2249ZM15.0352 12.2357C16.6981 12.2357 17.8455 13.3722 17.8455 14.5448H19.3455C19.3455 12.3383 17.3049 10.7357 15.0352 10.7357V12.2357ZM9.69389 7.35676L11.3628 5.2058L10.1777 4.28628L8.50878 6.43724L9.69389 7.35676ZM12.7452 4.58789H17.3252V3.08789H12.7452V4.58789ZM18.7076 5.2058L20.3765 7.35676L21.5616 6.43724L19.8927 4.28628L18.7076 5.2058ZM17.3252 4.58789C17.915 4.58789 18.4257 4.84251 18.7076 5.2058L19.8927 4.28628C19.2941 3.51484 18.3227 3.08789 17.3252 3.08789V4.58789ZM11.3628 5.2058C11.6447 4.84251 12.1554 4.58789 12.7452 4.58789V3.08789C11.7477 3.08789 10.7763 3.51484 10.1777 4.28628L11.3628 5.2058ZM26.1529 10.9758V18.1138H27.6529V10.9758H26.1529ZM22.1558 21.4426H7.91457V22.9426H22.1558V21.4426ZM3.91748 18.1138V10.9758H2.41748V18.1138H3.91748ZM7.91457 21.4426C5.59623 21.4426 3.91748 19.8495 3.91748 18.1138H2.41748C2.41748 20.8834 4.98942 22.9426 7.91457 22.9426V21.4426ZM26.1529 18.1138C26.1529 19.8495 24.4742 21.4426 22.1558 21.4426V22.9426C25.081 22.9426 27.6529 20.8834 27.6529 18.1138H26.1529ZM22.1558 7.647C24.4742 7.647 26.1529 9.2401 26.1529 10.9758H27.6529C27.6529 8.2062 25.081 6.147 22.1558 6.147V7.647ZM7.91457 6.147C4.98942 6.147 2.41748 8.2062 2.41748 10.9758H3.91748C3.91748 9.2401 5.59623 7.647 7.91457 7.647V6.147ZM7.91457 7.647H9.10134V6.147H7.91457V7.647ZM22.1558 6.147H20.9691V7.647H22.1558V6.147Z" fill="#000E08" fill-opacity="0.5"/>
<ellipse cx="15.0352" cy="6.89666" rx="1.18677" ry="1.0197" fill="#000E08" fill-opacity="0.5"/>
</svg>
