<svg width="23" height="21" viewBox="0 0 23 21" fill="none" xmlns="http://www.w3.org/2000/svg">
<path d="M13.9583 17.1541C13.0635 17.3641 12.1356 17.4641 11.1746 17.4641C7.56236 17.4641 4.32573 15.9341 2.11643 13.5141C0.569915 11.8241 0.569915 9.2141 2.11643 7.5341C2.29317 7.3341 2.49201 7.1441 2.69085 6.9541" stroke="#C2C3CB" stroke-width="1.5" stroke-linecap="round" stroke-linejoin="round"/>
<path d="M20.2328 13.514C19.3491 14.474 18.2997 15.294 17.1398 15.934L5.19849 5.11398C6.95488 4.13398 8.98744 3.58398 11.1746 3.58398C14.7869 3.58398 18.0235 5.11399 20.2328 7.53399C21.7793 9.21399 21.7793 11.834 20.2328 13.514Z" stroke="#C2C3CB" stroke-width="1.5" stroke-linecap="round" stroke-linejoin="round"/>
<path d="M14.5768 10.5238C14.5768 11.3738 14.1902 12.1438 13.5826 12.7038L8.76636 8.34385C9.37392 7.78385 10.2355 7.44385 11.1745 7.44385C13.0635 7.44385 14.5768 8.81385 14.5768 10.5238Z" stroke="#C2C3CB" stroke-width="1.5" stroke-linecap="round" stroke-linejoin="round"/>
<path d="M0.956543 1.27393L5.1984 5.11392L8.76643 8.34393L13.5827 12.7039L17.1507 15.9339L21.3926 19.7739" stroke="#C2C3CB" stroke-width="1.5" stroke-linecap="round" stroke-linejoin="round"/>
</svg>
