<svg width="20" height="20" viewBox="0 0 20 20" fill="none" xmlns="http://www.w3.org/2000/svg">
<path d="M11.2501 12.3189C12.2298 11.7087 12.9842 10.796 13.399 9.71885C13.8139 8.64171 13.8666 7.45877 13.5493 6.34899C13.2319 5.23921 12.5618 4.26298 11.6402 3.56799C10.7186 2.873 9.59574 2.49707 8.44148 2.49707C7.28722 2.49707 6.16437 2.873 5.24279 3.56799C4.32121 4.26298 3.65105 5.23921 3.33371 6.34899C3.01636 7.45877 3.0691 8.64171 3.48393 9.71885C3.89877 10.796 4.65313 11.7087 5.63289 12.3189C4.01961 12.8471 2.56805 13.8338 1.40086 15.2229C1.34617 15.2854 1.3045 15.3582 1.27828 15.437C1.25206 15.5159 1.24182 15.5991 1.24816 15.682C1.2545 15.7648 1.27728 15.8455 1.31519 15.9195C1.35309 15.9934 1.40536 16.059 1.46892 16.1125C1.53249 16.166 1.60608 16.2063 1.68539 16.231C1.7647 16.2557 1.84815 16.2643 1.93085 16.2564C2.01354 16.2485 2.09384 16.2242 2.16703 16.1849C2.24022 16.1456 2.30484 16.0921 2.35711 16.0275C3.92586 14.1557 6.0868 13.1252 8.43758 13.1252C10.7884 13.1252 12.9493 14.1557 14.5212 16.0275C14.6279 16.1546 14.7807 16.234 14.9459 16.2483C15.1112 16.2627 15.2754 16.2108 15.4024 16.1041C15.5294 15.9974 15.6089 15.8446 15.6232 15.6793C15.6376 15.5141 15.5857 15.3499 15.479 15.2229C14.311 13.8338 12.8595 12.8471 11.2501 12.3189ZM4.37508 7.81269C4.37508 7.00921 4.61334 6.22377 5.05973 5.55569C5.50612 4.88762 6.1406 4.36691 6.88293 4.05943C7.62525 3.75195 8.44208 3.6715 9.23013 3.82825C10.0182 3.98501 10.742 4.37192 11.3102 4.94007C11.8783 5.50822 12.2653 6.23209 12.422 7.02014C12.5788 7.80819 12.4983 8.62502 12.1908 9.36735C11.8834 10.1097 11.3627 10.7441 10.6946 11.1905C10.0265 11.6369 9.24106 11.8752 8.43758 11.8752C7.36052 11.874 6.32792 11.4455 5.56633 10.6839C4.80473 9.92235 4.37632 8.88976 4.37508 7.81269ZM19.0821 11.1775L18.718 10.9674C18.7608 10.7413 18.7608 10.5091 18.718 10.283L19.0821 10.0729C19.2257 9.98997 19.3305 9.85344 19.3734 9.69331C19.4163 9.53317 19.3939 9.36253 19.311 9.21894C19.2281 9.07536 19.0916 8.97057 18.9315 8.92764C18.7713 8.88471 18.6007 8.90716 18.4571 8.99004L18.0923 9.20098C17.9177 9.05118 17.7169 8.9349 17.5001 8.85801V8.43769C17.5001 8.27193 17.4342 8.11296 17.317 7.99575C17.1998 7.87854 17.0408 7.81269 16.8751 7.81269C16.7093 7.81269 16.5503 7.87854 16.4331 7.99575C16.3159 8.11296 16.2501 8.27193 16.2501 8.43769V8.85801C16.0333 8.9349 15.8325 9.05118 15.6579 9.20098L15.293 8.99004C15.2219 8.949 15.1435 8.92237 15.0621 8.91166C14.9807 8.90096 14.898 8.90639 14.8187 8.92764C14.7394 8.9489 14.6651 8.98556 14.5999 9.03555C14.5348 9.08553 14.4802 9.14785 14.4391 9.21894C14.3981 9.29004 14.3715 9.36853 14.3608 9.44992C14.3501 9.53131 14.3555 9.61401 14.3767 9.69331C14.398 9.7726 14.4347 9.84693 14.4846 9.91205C14.5346 9.97717 14.5969 10.0318 14.668 10.0729L15.0321 10.283C14.9894 10.5091 14.9894 10.7413 15.0321 10.9674L14.668 11.1775C14.5245 11.2604 14.4197 11.3969 14.3767 11.5571C14.3338 11.7172 14.3563 11.8879 14.4391 12.0314C14.522 12.175 14.6585 12.2798 14.8187 12.3227C14.9788 12.3657 15.1495 12.3432 15.293 12.2604L15.6579 12.0494C15.8325 12.1992 16.0333 12.3155 16.2501 12.3924V12.8127C16.2501 12.9785 16.3159 13.1374 16.4331 13.2546C16.5503 13.3718 16.7093 13.4377 16.8751 13.4377C17.0408 13.4377 17.1998 13.3718 17.317 13.2546C17.4342 13.1374 17.5001 12.9785 17.5001 12.8127V12.3924C17.7169 12.3155 17.9177 12.1992 18.0923 12.0494L18.4571 12.2604C18.552 12.3154 18.6599 12.3443 18.7696 12.3439C18.9072 12.344 19.041 12.2986 19.1502 12.2149C19.2594 12.1311 19.3379 12.0136 19.3736 11.8807C19.4092 11.7477 19.3999 11.6068 19.3472 11.4796C19.2945 11.3525 19.2013 11.2463 19.0821 11.1775ZM16.2501 10.6252C16.2501 10.5016 16.2867 10.3807 16.3554 10.278C16.4241 10.1752 16.5217 10.0951 16.6359 10.0478C16.7501 10.0005 16.8758 9.98809 16.997 10.0122C17.1182 10.0363 17.2296 10.0958 17.317 10.1833C17.4044 10.2707 17.464 10.382 17.4881 10.5033C17.5122 10.6245 17.4998 10.7502 17.4525 10.8644C17.4052 10.9786 17.3251 11.0762 17.2223 11.1449C17.1195 11.2135 16.9987 11.2502 16.8751 11.2502C16.7093 11.2502 16.5503 11.1843 16.4331 11.0671C16.3159 10.9499 16.2501 10.791 16.2501 10.6252Z" fill="#1D1D1D"/>
</svg>
