<svg width="25" height="26" viewBox="0 0 25 26" fill="none" xmlns="http://www.w3.org/2000/svg">
<path d="M21.5 20.1385V18.4601C21.5 17.6262 21.0021 16.8763 20.2428 16.5666L18.2086 15.7369C17.2429 15.343 16.1422 15.7697 15.677 16.7184L15.5 17.0794C15.5 17.0794 13 16.5695 11 14.5301C9 12.4907 8.5 9.94147 8.5 9.94147L8.85402 9.76097C9.78438 9.28662 10.2029 8.16426 9.81654 7.17945L9.00289 5.10523C8.69916 4.33096 7.96374 3.82324 7.14593 3.82324H5.5C4.39543 3.82324 3.5 4.73632 3.5 5.86265C3.5 14.8733 10.6634 22.1779 19.5 22.1779C20.6046 22.1779 21.5 21.2648 21.5 20.1385Z" stroke="#000E08" stroke-width="1.5" stroke-linejoin="round"/>
</svg>
