<svg width="25" height="25" viewBox="0 0 25 25" fill="none" xmlns="http://www.w3.org/2000/svg">
<path fill-rule="evenodd" clip-rule="evenodd" d="M8.35078 8.99228C7.29686 8.96876 6.4615 8.09542 6.48484 7.0415C6.50817 5.98757 7.38136 5.15206 8.43529 5.17521C9.48922 5.19836 10.3249 6.07141 10.3019 7.12534C10.2909 7.6317 10.0791 8.11291 9.71314 8.46305C9.34721 8.8132 8.85712 9.00358 8.35078 8.99228V8.99228Z" stroke="#909090" stroke-width="1.5" stroke-linecap="round" stroke-linejoin="round"/>
<path fill-rule="evenodd" clip-rule="evenodd" d="M17.12 15.5492C18.174 15.5722 19.0099 16.4453 18.9869 17.4994C18.9639 18.5534 18.0908 19.3893 17.0368 19.3663C15.9827 19.3434 15.1468 18.4702 15.1698 17.4162C15.1928 16.3621 16.0659 15.5263 17.12 15.5492V15.5492Z" stroke="#909090" stroke-width="1.5" stroke-linecap="round" stroke-linejoin="round"/>
<path d="M17.0892 11.7291C17.0802 12.1432 17.4085 12.4862 17.8227 12.4952C18.2368 12.5042 18.5798 12.1759 18.5888 11.7617L17.0892 11.7291ZM17.8763 10.0318L18.6262 10.0481L18.6262 10.0438L17.8763 10.0318ZM15.1647 7.23107L15.1484 7.9809L15.1525 7.98097L15.1647 7.23107ZM10.3182 6.37528C9.90409 6.36625 9.56107 6.69464 9.55205 7.10876C9.54302 7.52287 9.87141 7.86589 10.2855 7.87492L10.3182 6.37528ZM17.3203 11.2036C17.0211 11.4901 17.0108 11.9648 17.2972 12.2641C17.5837 12.5633 18.0584 12.5736 18.3576 12.2872L17.3203 11.2036ZM20.3078 10.4202C20.607 10.1338 20.6173 9.659 20.3309 9.3598C20.0445 9.06059 19.5697 9.05024 19.2705 9.33669L20.3078 10.4202ZM17.2972 12.2641C17.5837 12.5633 18.0584 12.5736 18.3576 12.2872C18.6569 12.0007 18.6672 11.526 18.3808 11.2268L17.2972 12.2641ZM16.5138 9.27661C16.2274 8.97741 15.7526 8.96706 15.4534 9.25351C15.1542 9.53995 15.1438 10.0147 15.4303 10.3139L16.5138 9.27661ZM8.3815 12.8126C8.39053 12.3985 8.06214 12.0555 7.64802 12.0464C7.2339 12.0374 6.89088 12.3658 6.88186 12.7799L8.3815 12.8126ZM7.59436 14.5089L6.84452 14.4925L6.84446 14.4969L7.59436 14.5089ZM10.306 17.3096L10.3223 16.5598L10.3182 16.5597L10.306 17.3096ZM15.1525 18.1654C15.5666 18.1744 15.9096 17.846 15.9187 17.4319C15.9277 17.0178 15.5993 16.6748 15.1852 16.6658L15.1525 18.1654ZM8.15035 13.337C8.44956 13.0506 8.4599 12.5758 8.17346 12.2766C7.88702 11.9774 7.41226 11.9671 7.11305 12.2535L8.15035 13.337ZM5.16291 14.1205C4.86371 14.4069 4.85336 14.8817 5.13981 15.1809C5.42625 15.4801 5.90101 15.4904 6.20022 15.204L5.16291 14.1205ZM8.17346 12.2766C7.88702 11.9774 7.41226 11.9671 7.11305 12.2535C6.81385 12.54 6.8035 13.0147 7.08994 13.3139L8.17346 12.2766ZM8.9569 15.2641C9.24334 15.5633 9.7181 15.5736 10.0173 15.2872C10.3165 15.0007 10.3269 14.526 10.0404 14.2268L8.9569 15.2641ZM18.5888 11.7617L18.6262 10.0481L17.1265 10.0155L17.0892 11.7291L18.5888 11.7617ZM18.6262 10.0438C18.6572 8.10765 17.1131 6.51279 15.177 6.48117L15.1525 7.98097C16.2605 7.99906 17.1442 8.91178 17.1264 10.0198L18.6262 10.0438ZM15.1811 6.48124L10.3182 6.37528L10.2855 7.87492L15.1484 7.98089L15.1811 6.48124ZM18.3576 12.2872L20.3078 10.4202L19.2705 9.33669L17.3203 11.2036L18.3576 12.2872ZM18.3808 11.2268L16.5138 9.27661L15.4303 10.3139L17.2972 12.2641L18.3808 11.2268ZM6.88186 12.7799L6.84454 14.4925L8.34418 14.5252L8.3815 12.8126L6.88186 12.7799ZM6.84446 14.4969C6.81347 16.433 8.35759 18.0279 10.2937 18.0595L10.3182 16.5597C9.2102 16.5416 8.32653 15.6289 8.34426 14.5209L6.84446 14.4969ZM10.2896 18.0594L15.1525 18.1654L15.1852 16.6658L10.3223 16.5598L10.2896 18.0594ZM7.11305 12.2535L5.16291 14.1205L6.20022 15.204L8.15035 13.337L7.11305 12.2535ZM7.08994 13.3139L8.9569 15.2641L10.0404 14.2268L8.17346 12.2766L7.08994 13.3139Z" fill="#909090"/>
</svg>
