<svg width="24" height="24" viewBox="0 0 24 24" fill="none" xmlns="http://www.w3.org/2000/svg">
<path d="M1 16.8398C1 20.2454 3.7544 22.9998 7.16 22.9998L6.23601 21.4598" stroke="#FD397F" stroke-width="1.5" stroke-linecap="round" stroke-linejoin="round"/>
<path d="M23 7.16C23 3.7544 20.2456 1 16.84 1L17.764 2.54" stroke="#FD397F" stroke-width="1.5" stroke-linecap="round" stroke-linejoin="round"/>
<path d="M5.56985 15.4742C5.65345 16.9093 6.42675 18.0867 8.34955 18.0867H15.6506C17.5734 18.0867 18.3398 16.9093 18.4303 15.4742L18.7926 9.71969C18.8901 8.21489 17.6919 6.93999 16.1801 6.93999C15.7551 6.93999 15.365 6.69615 15.1699 6.31995L14.6683 5.30979C14.3479 4.67582 13.5119 4.15332 12.8013 4.15332H11.2059C10.4883 4.15332 9.65232 4.67582 9.33185 5.30979L8.83025 6.31995C8.63519 6.69615 8.24505 6.93999 7.82009 6.93999C6.30832 6.93999 5.11005 8.21489 5.20759 9.71969L5.38872 12.5551" stroke="#FD397F" stroke-width="1.5" stroke-linecap="round" stroke-linejoin="round"/>
<path d="M10.9551 8.33301H13.0451" stroke="#FD397F" stroke-width="1.5" stroke-linecap="round" stroke-linejoin="round"/>
<path d="M12.0001 15.2998C13.2472 15.2998 14.2643 14.2827 14.2643 13.0357C14.2643 11.7886 13.2472 10.7715 12.0001 10.7715C10.7531 10.7715 9.73596 11.7886 9.73596 13.0357C9.73596 14.2827 10.7531 15.2998 12.0001 15.2998Z" stroke="#FD397F" stroke-width="1.5" stroke-linecap="round" stroke-linejoin="round"/>
</svg>
