<svg width="32" height="32" viewBox="0 0 32 32" fill="none" xmlns="http://www.w3.org/2000/svg">
<path d="M15.9986 17C19.8586 17 22.9986 13.86 22.9986 10C22.9986 6.14 19.8586 3 15.9986 3C12.1386 3 8.99862 6.14 8.99862 10C8.99862 13.86 12.1386 17 15.9986 17ZM15.9986 5C18.7559 5 20.9986 7.24267 20.9986 10C20.9986 12.7573 18.7559 15 15.9986 15C13.2413 15 10.9986 12.7573 10.9986 10C10.9986 7.24267 13.2413 5 15.9986 5ZM26.332 23.9561V25.304C26.332 26.5507 25.8773 27.7453 25.0506 28.6667C24.8533 28.888 24.5799 29 24.3053 29C24.0679 29 23.8293 28.9159 23.6386 28.7453C23.2266 28.3773 23.1933 27.7453 23.5613 27.3333C24.0586 26.7773 24.3333 26.0573 24.3333 25.3053V23.9574C24.3333 21.9387 22.9946 20.1919 21.0759 19.7106C20.7386 19.6253 20.376 19.672 20.0813 19.8387C17.5466 21.2494 14.4453 21.2439 11.9266 19.8426C11.6253 19.6706 11.2626 19.6213 10.9253 19.7093C9.00663 20.192 7.66659 21.9387 7.66659 23.9574V25.3053C7.66659 26.0587 7.94131 26.7787 8.43864 27.3333C8.80664 27.7453 8.77191 28.3773 8.36125 28.7453C7.94791 29.1146 7.31597 29.0786 6.9493 28.668C6.12263 27.7453 5.66797 26.5507 5.66797 25.3053V23.9574C5.66797 21.0214 7.62926 18.4773 10.4373 17.7707C11.2679 17.56 12.1706 17.6801 12.9093 18.1014C14.8159 19.1627 17.1787 19.1667 19.1013 18.0973C19.8307 17.6813 20.7333 17.5626 21.5667 17.772C24.3707 18.4746 26.332 21.0187 26.332 23.9561Z" fill="#838383"/>
</svg>
