<svg width="92" height="92" viewBox="0 0 92 92" fill="none" xmlns="http://www.w3.org/2000/svg">
<g clip-path="url(#clip0_805_941)">
<path d="M6.16809 78.0283V71.5177C6.28883 69.1459 7.05565 66.8521 8.38565 64.8845C9.71564 62.9169 11.5582 61.3503 13.7141 60.354C34.4345 52.0312 57.5685 52.0312 78.2889 60.354C80.4448 61.3503 82.2874 62.9169 83.6174 64.8845C84.9474 66.8521 85.7142 69.1459 85.8349 71.5177V78.0283C85.8341 79.7733 85.4893 81.5011 84.8203 83.1128C84.1514 84.7245 83.1713 86.1886 81.9362 87.4213C80.701 88.6541 79.2351 89.6313 77.622 90.2971C76.009 90.9629 74.2806 91.3043 72.5355 91.3018H19.4675C17.7224 91.3043 15.994 90.9629 14.381 90.2971C12.768 89.6313 11.302 88.6541 10.0669 87.4213C8.83172 86.1886 7.85166 84.7245 7.18268 83.1128C6.51371 81.5011 6.16894 79.7733 6.16809 78.0283ZM46.0015 0.697755C41.6237 0.696475 37.3438 1.99348 33.7032 4.42474C30.0625 6.85599 27.2246 10.3123 25.5484 14.3565C23.8722 18.4007 23.433 22.8512 24.2863 27.145C25.1395 31.4389 27.247 35.3833 30.3422 38.4793C33.4373 41.5754 37.3811 43.684 41.6747 44.5385C45.9683 45.3931 50.4189 44.9551 54.4636 43.2801C58.5083 41.6051 61.9654 38.7682 64.3977 35.1283C66.8301 31.4883 68.1283 27.2088 68.1283 22.831C68.1292 19.9247 67.5575 17.0468 66.4459 14.3615C65.3343 11.6762 63.7046 9.23618 61.6498 7.18083C59.5951 5.12548 57.1555 3.49506 54.4706 2.38268C51.7856 1.2703 48.9078 0.697755 46.0015 0.697755Z" fill="white"/>
</g>
<defs>
<clipPath id="clip0_805_941">
<rect width="90.604" height="90.604" fill="white" transform="translate(0.697998 0.697754)"/>
</clipPath>
</defs>
</svg>
