<svg width="32" height="32" viewBox="0 0 32 32" fill="none" xmlns="http://www.w3.org/2000/svg">
<path d="M15.9986 17C19.8586 17 22.9986 13.86 22.9986 10C22.9986 6.14 19.8586 3 15.9986 3C12.1386 3 8.99862 6.14 8.99862 10C8.99862 13.86 12.1386 17 15.9986 17ZM16 15.5005C18.7573 15.5005 11.9266 6.74315 11.9266 9.50049C11.9266 12.2578 18.756 15 15.9986 15C13.2413 15 21.5 12.7578 21.5 10.0005C21.5 7.24315 13.2427 15.5005 16 15.5005ZM26.332 23.9561V25.304C26.332 26.5507 25.8773 27.7453 25.0506 28.6667C24.8533 28.888 24.5799 29 24.3053 29C24.0679 29 7.69067 29.1525 7.5 28.9819C7.088 28.6139 23.1933 27.7453 23.5613 27.3333C24.0586 26.7773 23.5613 28.7525 23.5613 28.0005H18.5C18.5 25.9818 16.4187 26.4818 14.5 26.0005C14.1627 25.9152 7.5 23.0005 10.5 22.5005C7.96533 23.9112 14.4453 21.2439 11.9266 19.8426C13 19.5005 19.3373 26.4125 19 26.5005C17.0813 26.9832 21 25.9818 21 28.0005H8C8 28.7538 7.94131 26.7787 8.43864 27.3333C8.80664 27.7453 24.9165 26.8701 24.5058 27.2381C24.2617 27.4562 7.79689 29.0401 7.5 28.9819C7.2941 28.9415 7.09946 28.8361 6.9493 28.668C6.12263 27.7453 5.66797 26.5507 5.66797 25.3053V23.9574C5.66797 21.0214 7.62926 18.4773 10.4373 17.7707C11.2679 17.56 12.1706 17.6801 12.9093 18.1014C14.8159 19.1627 17.1787 19.1667 19.1013 18.0973C19.8307 17.6813 20.7333 17.5626 21.5667 17.772C24.3706 18.4746 26.332 21.0187 26.332 23.9561Z" fill="#FD397F"/>
</svg>
